<?xml version="1.0" standalone="no"?>
<!DOCTYPE svg PUBLIC "-//W3C//DTD SVG 20010904//EN"
 "http://www.w3.org/TR/2001/REC-SVG-20010904/DTD/svg10.dtd">
<svg version="1.0" xmlns="http://www.w3.org/2000/svg"
 width="177.000000pt" height="208.000000pt" viewBox="0 0 177.000000 208.000000"
 preserveAspectRatio="xMidYMid meet">

<g transform="translate(0.000000,208.000000) scale(0.100000,-0.100000)"
fill="#000000" stroke="none">
<path d="M960 1707 c-20 -17 -100 -90 -178 -161 l-142 -129 0 -281 c0 -154 -4
-298 -9 -319 -10 -41 -45 -87 -67 -87 -21 0 -92 159 -109 242 -18 91 -19 139
-4 228 22 135 89 260 196 362 33 31 57 61 54 67 -9 14 -155 -103 -220 -176
-236 -265 -227 -709 20 -956 100 -100 254 -167 384 -167 140 0 323 76 421 174
80 80 142 172 126 188 -9 9 -21 3 -50 -24 -56 -55 -148 -115 -209 -138 -29
-11 -92 -23 -138 -26 l-85 -7 0 184 c0 101 -3 345 -7 542 -4 270 -3 357 6 357
6 0 37 -13 69 -29 57 -28 160 -64 217 -76 27 -5 37 1 98 63 91 92 89 105 -18
113 -94 7 -145 20 -239 60 -37 16 -71 29 -75 29 -3 0 -22 -15 -41 -33z m-50
-229 c0 -62 3 -308 7 -547 l6 -434 -44 7 c-91 14 -255 114 -281 171 -9 21 -7
27 20 50 45 38 160 178 172 209 6 16 10 138 10 301 l0 273 48 41 c26 23 50 41
55 41 4 0 7 -51 7 -112z"/>
</g>
</svg>
